{"title":"Shaolin Temple 2 Kids From Shaolin (1988) [Jet Li]","uid":5899393,"size":731264976,"categoryP":"video","categoryS":"movies","magnet":"?xt=urn:btih:73730789192528561679b0e96bba588ee39300dd&amp;dn=Shaolin+Temple+2+Kids+From+Shaolin+%281988%29+%5BJet+Li%5D&amp;tr=udp%3A%2F%2Ftracker.openbittorrent.com%3A80&amp;tr=udp%3A%2F%2Fopen.demonii.com%3A1337&amp;tr=udp%3A%2F%2Ftracker.coppersurfer.tk%3A6969&amp;tr=udp%3A%2F%2Fexodus.desync.com%3A6969","seeders":0,"leechers":1,"uploader":"deffjam555","files":2,"time":1287629165,"description":"Two rivaling families live on opposite sides of a river. One of them practices Shaolin kung fu and has only sons, while the other has only daughters and practices the Wu-Tang sword. The father of the Wu-Tang family is so paranoid about the Shaolin kids stealing his sword style (besides, he wants a son to teach it to, and the closest thing he has is a lesbian daughter) that he is taken off guard when some real bad guys come along to kill his family, but the Shaolin family helps them out. All the while, everyone is desperately trying to get the lesbian girl to marry Jet Li.\n\n &lt;a href=&quot;\nhttp://www.imdb.com/title/tt0086301/&quot; rel=&quot;nofollow&quot; target=&quot;_NEW&quot;&gt;\nhttp://www.imdb.com/title/tt0086301/&lt;/a&gt;\n\nGeneral Info:\n\nTemple 2 Kids From Shaolin (1983).avi\nFormat : AVI\nFormat/Info : Audio Video Interleave\nFile size : 697 MiB\nDuration : 1h 43mn\nOverall bit rate : 943 Kbps\nWriting application : Nandub v1.0rc2\nWriting library : Nandub build 1852/release\n\nVideo\nID : 0\nFormat : MPEG-4 Visual\nFormat profile : Simple@L3\nFormat settings, BVOP : Yes\nFormat settings, QPel : No\nFormat settings, GMC : No warppoints\nFormat settings, Matrix : Default (MPEG)\nMuxing mode : Packed bitstream\nCodec ID : XVID\nCodec ID/Hint : XviD\nDuration : 1h 43mn\nBit rate : 678 Kbps\nWidth : 576 pixels\nHeight : 256 pixels\nDisplay aspect ratio : 2.25:1\nFrame rate : 23.976 fps\nColor space : YUV\nChroma subsampling : 4:2:0\nBit depth : 8 bits\nScan type : Progressive\nBits/(Pixel*Frame) : 0.192\nStream size : 501 MiB (72%)\nWriting library : XviD 1.0.1 (UTC 2004-06-05)\n\nAudio #1\nID : 1\nFormat : MPEG Audio\nFormat version : Version 1\nFormat profile : Layer 3\nMode : Dual mono\nCodec ID : 55\nCodec ID/Hint : MP3\nDuration : 1h 43mn\nBit rate mode : Variable\nBit rate : 128 Kbps\nChannel(s) : 2 channels\nSampling rate : 48.0 KHz\nStream size : 90.1 MiB (13%)\nAlignment : Aligned on interleaves\nInterleave, duration : 24 ms (0.58 video frame)\nInterleave, preload duration : 352 ms\nWriting library : LAME3.96r\nEncoding settings : -m d -V 4 -q 3 -lowpass 17.5 --abr 128\n\nAudio #2\nID : 2\nFormat : MPEG Audio\nFormat version : Version 1\nFormat profile : Layer 3\nMode : Dual mono\nCodec ID : 55\nCodec ID/Hint : MP3\nDuration : 1h 43mn\nBit rate mode : Variable\nBit rate : 128 Kbps\nChannel(s) : 2 channels\nscreens\n &lt;a href=&quot;\nhttp://img830.imageshack.us/img830/8361/capture006.jpg&quot; rel=&quot;nofollow&quot; target=&quot;_NEW&quot;&gt;\nhttp://img830.imageshack.us/img830/8361/capture006.jpg&lt;/a&gt; &lt;a href=&quot;\nhttp://img843.imageshack.us/img843/8996/capture017.jpg&quot; rel=&quot;nofollow&quot; target=&quot;_NEW&quot;&gt;\nhttp://img843.imageshack.us/img843/8996/capture017.jpg&lt;/a&gt; &lt;a href=&quot;\nhttp://img13.imageshack.us/img13/7347/capture031a.jpg&quot; rel=&quot;nofollow&quot; target=&quot;_NEW&quot;&gt;\nhttp://img13.imageshack.us/img13/7347/capture031a.jpg&lt;/a&gt;\nSampling rate : 48.0 KHz\nStream size : 90.3 MiB (13%)\nAlignment : Aligned on interleaves\nInterleave, duration : 24 ms (0.58 video frame)\nInterleave, preload duration : 499 ms\nWriting library : LAME3.96r\nEncoding settings : -m d -V 4 -q 3 -lowpass 17.5 --abr 128 \n\n\n","torrent":{"xt":"urn:btih:73730789192528561679b0e96bba588ee39300dd","amp;dn":"Shaolin+Temple+2+Kids+From+Shaolin+%281988%29+%5BJet+Li%5D","amp;tr":["udp%3A%2F%2Ftracker.openbittorrent.com%3A80","udp%3A%2F%2Fopen.demonii.com%3A1337","udp%3A%2F%2Ftracker.coppersurfer.tk%3A6969","udp%3A%2F%2Fexodus.desync.com%3A6969"],"infoHash":"73730789192528561679b0e96bba588ee39300dd","infoHashBuffer":{"type":"Buffer","data":[115,115,7,137,25,37,40,86,22,121,176,233,107,186,88,142,227,147,0,221]},"announce":[],"urlList":[]}}